<?xml version="1.0" encoding="UTF-8" standalone="no"?>
<!DOCTYPE svg PUBLIC "-//W3C//DTD SVG 1.1//EN"
 "http://www.w3.org/Graphics/SVG/1.1/DTD/svg11.dtd">
<!-- Generated by graphviz version 2.47.3 (20210619.1520)
 -->
<!-- Title: dependencies Pages: 1 -->
<svg width="1972pt" height="247pt"
 viewBox="0.00 0.00 1972.00 246.80" xmlns="http://www.w3.org/2000/svg" xmlns:xlink="http://www.w3.org/1999/xlink">
<g id="graph0" class="graph" transform="scale(1 1) rotate(0) translate(4 242.8)">
<title>dependencies</title>
<polygon fill="white" stroke="transparent" points="-4,4 -4,-242.8 1968,-242.8 1968,4 -4,4"/>
<text text-anchor="middle" x="982" y="-8.2" font-family="sans-serif" font-size="14.00">dependencies</text>
<g id="clust1" class="cluster">
<title>cluster_AppModule</title>
<polygon fill="none" stroke="black" stroke-dasharray="1,5" points="8,-32.8 8,-230.8 1956,-230.8 1956,-32.8 8,-32.8"/>
</g>
<g id="clust12" class="cluster">
<title>cluster_AppModule_imports</title>
<polygon fill="none" stroke="black" points="1479,-40.8 1479,-92.8 1948,-92.8 1948,-40.8 1479,-40.8"/>
</g>
<g id="clust14" class="cluster">
<title>cluster_AppModule_bootstrap</title>
<polygon fill="none" stroke="black" points="949,-170.8 949,-222.8 1073,-222.8 1073,-170.8 949,-170.8"/>
</g>
<g id="clust2" class="cluster">
<title>cluster_AppModule_declarations</title>
<polygon fill="none" stroke="black" points="16,-40.8 16,-92.8 1471,-92.8 1471,-40.8 16,-40.8"/>
</g>
<!-- AdminNavigationComponent -->
<g id="node1" class="node">
<title>AdminNavigationComponent</title>
<polygon fill="#ffffb3" stroke="black" points="1463.43,-84.8 1280.57,-84.8 1280.57,-48.8 1463.43,-48.8 1463.43,-84.8"/>
<text text-anchor="middle" x="1372" y="-62.6" font-family="Times,serif" font-size="14.00">AdminNavigationComponent</text>
</g>
<!-- AppModule -->
<g id="node10" class="node">
<title>AppModule</title>
<polygon fill="#8dd3c7" stroke="black" points="1052.66,-149.8 1049.66,-153.8 1028.66,-153.8 1025.66,-149.8 969.34,-149.8 969.34,-113.8 1052.66,-113.8 1052.66,-149.8"/>
<text text-anchor="middle" x="1011" y="-127.6" font-family="Times,serif" font-size="14.00">AppModule</text>
</g>
<!-- AdminNavigationComponent&#45;&gt;AppModule -->
<g id="edge1" class="edge">
<title>AdminNavigationComponent&#45;&gt;AppModule</title>
<path fill="none" stroke="black" d="M1372,-84.82C1372,-102.17 1372,-125.8 1372,-125.8 1372,-125.8 1062.76,-125.8 1062.76,-125.8"/>
<polygon fill="black" stroke="black" points="1062.76,-122.3 1052.76,-125.8 1062.76,-129.3 1062.76,-122.3"/>
</g>
<!-- AppComponent -->
<g id="node2" class="node">
<title>AppComponent</title>
<polygon fill="#ffffb3" stroke="black" points="1262.94,-84.8 1157.06,-84.8 1157.06,-48.8 1262.94,-48.8 1262.94,-84.8"/>
<text text-anchor="middle" x="1210" y="-62.6" font-family="Times,serif" font-size="14.00">AppComponent</text>
</g>
<!-- AppComponent&#45;&gt;AppModule -->
<g id="edge2" class="edge">
<title>AppComponent&#45;&gt;AppModule</title>
<path fill="none" stroke="black" d="M1210,-85.04C1210,-100.37 1210,-119.8 1210,-119.8 1210,-119.8 1062.72,-119.8 1062.72,-119.8"/>
<polygon fill="black" stroke="black" points="1062.72,-116.3 1052.72,-119.8 1062.72,-123.3 1062.72,-116.3"/>
</g>
<!-- ButtonComponent -->
<g id="node3" class="node">
<title>ButtonComponent</title>
<polygon fill="#ffffb3" stroke="black" points="1139.95,-84.8 1020.05,-84.8 1020.05,-48.8 1139.95,-48.8 1139.95,-84.8"/>
<text text-anchor="middle" x="1080" y="-62.6" font-family="Times,serif" font-size="14.00">ButtonComponent</text>
</g>
<!-- ButtonComponent&#45;&gt;AppModule -->
<g id="edge3" class="edge">
<title>ButtonComponent&#45;&gt;AppModule</title>
<path fill="none" stroke="black" d="M1036.55,-84.91C1036.55,-84.91 1036.55,-103.79 1036.55,-103.79"/>
<polygon fill="black" stroke="black" points="1033.05,-103.79 1036.55,-113.79 1040.05,-103.79 1033.05,-103.79"/>
</g>
<!-- CapitalizationPipe -->
<g id="node4" class="node">
<title>CapitalizationPipe</title>
<polygon fill="#ffffb3" stroke="black" points="1002.93,-84.8 883.07,-84.8 883.07,-48.8 1002.93,-48.8 1002.93,-84.8"/>
<text text-anchor="middle" x="943" y="-62.6" font-family="Times,serif" font-size="14.00">CapitalizationPipe</text>
</g>
<!-- CapitalizationPipe&#45;&gt;AppModule -->
<g id="edge4" class="edge">
<title>CapitalizationPipe&#45;&gt;AppModule</title>
<path fill="none" stroke="black" d="M985.94,-84.91C985.94,-84.91 985.94,-103.79 985.94,-103.79"/>
<polygon fill="black" stroke="black" points="982.44,-103.79 985.94,-113.79 989.44,-103.79 982.44,-103.79"/>
</g>
<!-- ClientNavigationComponent -->
<g id="node5" class="node">
<title>ClientNavigationComponent</title>
<polygon fill="#ffffb3" stroke="black" points="864.76,-84.8 687.24,-84.8 687.24,-48.8 864.76,-48.8 864.76,-84.8"/>
<text text-anchor="middle" x="776" y="-62.6" font-family="Times,serif" font-size="14.00">ClientNavigationComponent</text>
</g>
<!-- ClientNavigationComponent&#45;&gt;AppModule -->
<g id="edge5" class="edge">
<title>ClientNavigationComponent&#45;&gt;AppModule</title>
<path fill="none" stroke="black" d="M776,-85.04C776,-100.37 776,-119.8 776,-119.8 776,-119.8 959.26,-119.8 959.26,-119.8"/>
<polygon fill="black" stroke="black" points="959.26,-123.3 969.26,-119.8 959.26,-116.3 959.26,-123.3"/>
</g>
<!-- LoginComponent -->
<g id="node6" class="node">
<title>LoginComponent</title>
<polygon fill="#ffffb3" stroke="black" points="669.28,-84.8 554.72,-84.8 554.72,-48.8 669.28,-48.8 669.28,-84.8"/>
<text text-anchor="middle" x="612" y="-62.6" font-family="Times,serif" font-size="14.00">LoginComponent</text>
</g>
<!-- LoginComponent&#45;&gt;AppModule -->
<g id="edge6" class="edge">
<title>LoginComponent&#45;&gt;AppModule</title>
<path fill="none" stroke="black" d="M612,-84.82C612,-102.17 612,-125.8 612,-125.8 612,-125.8 959.05,-125.8 959.05,-125.8"/>
<polygon fill="black" stroke="black" points="959.05,-129.3 969.05,-125.8 959.05,-122.3 959.05,-129.3"/>
</g>
<!-- StaffNavigationComponent -->
<g id="node7" class="node">
<title>StaffNavigationComponent</title>
<polygon fill="#ffffb3" stroke="black" points="536.25,-84.8 365.75,-84.8 365.75,-48.8 536.25,-48.8 536.25,-84.8"/>
<text text-anchor="middle" x="451" y="-62.6" font-family="Times,serif" font-size="14.00">StaffNavigationComponent</text>
</g>
<!-- StaffNavigationComponent&#45;&gt;AppModule -->
<g id="edge7" class="edge">
<title>StaffNavigationComponent&#45;&gt;AppModule</title>
<path fill="none" stroke="black" d="M451,-84.91C451,-104.14 451,-131.8 451,-131.8 451,-131.8 958.91,-131.8 958.91,-131.8"/>
<polygon fill="black" stroke="black" points="958.91,-135.3 968.91,-131.8 958.91,-128.3 958.91,-135.3"/>
</g>
<!-- SuperNavigationComponent -->
<g id="node8" class="node">
<title>SuperNavigationComponent</title>
<polygon fill="#ffffb3" stroke="black" points="348.2,-84.8 171.8,-84.8 171.8,-48.8 348.2,-48.8 348.2,-84.8"/>
<text text-anchor="middle" x="260" y="-62.6" font-family="Times,serif" font-size="14.00">SuperNavigationComponent</text>
</g>
<!-- SuperNavigationComponent&#45;&gt;AppModule -->
<g id="edge8" class="edge">
<title>SuperNavigationComponent&#45;&gt;AppModule</title>
<path fill="none" stroke="black" d="M260,-85.08C260,-106.12 260,-137.8 260,-137.8 260,-137.8 959.28,-137.8 959.28,-137.8"/>
<polygon fill="black" stroke="black" points="959.28,-141.3 969.28,-137.8 959.28,-134.3 959.28,-141.3"/>
</g>
<!-- TextBoxComponent -->
<g id="node9" class="node">
<title>TextBoxComponent</title>
<polygon fill="#ffffb3" stroke="black" points="154.33,-84.8 23.67,-84.8 23.67,-48.8 154.33,-48.8 154.33,-84.8"/>
<text text-anchor="middle" x="89" y="-62.6" font-family="Times,serif" font-size="14.00">TextBoxComponent</text>
</g>
<!-- TextBoxComponent&#45;&gt;AppModule -->
<g id="edge9" class="edge">
<title>TextBoxComponent&#45;&gt;AppModule</title>
<path fill="none" stroke="black" d="M89,-85.05C89,-107.82 89,-143.8 89,-143.8 89,-143.8 959.29,-143.8 959.29,-143.8"/>
<polygon fill="black" stroke="black" points="959.29,-147.3 969.29,-143.8 959.29,-140.3 959.29,-147.3"/>
</g>
<!-- AppComponent  -->
<g id="node14" class="node">
<title>AppComponent </title>
<polygon fill="#80b1d3" stroke="black" points="1065.44,-214.8 956.56,-214.8 956.56,-178.8 1065.44,-178.8 1065.44,-214.8"/>
<text text-anchor="middle" x="1011" y="-192.6" font-family="Times,serif" font-size="14.00">AppComponent </text>
</g>
<!-- AppModule&#45;&gt;AppComponent  -->
<g id="edge13" class="edge">
<title>AppModule&#45;&gt;AppComponent </title>
<path fill="none" stroke="black" stroke-dasharray="1,5" d="M1011,-149.91C1011,-149.91 1011,-168.79 1011,-168.79"/>
<polygon fill="black" stroke="black" points="1007.5,-168.79 1011,-178.79 1014.5,-168.79 1007.5,-168.79"/>
</g>
<!-- AppRoutingModule -->
<g id="node11" class="node">
<title>AppRoutingModule</title>
<polygon fill="#8dd3c7" stroke="black" points="1940.27,-84.8 1937.27,-88.8 1916.27,-88.8 1913.27,-84.8 1811.73,-84.8 1811.73,-48.8 1940.27,-48.8 1940.27,-84.8"/>
<text text-anchor="middle" x="1876" y="-62.6" font-family="Times,serif" font-size="14.00">AppRoutingModule</text>
</g>
<!-- AppRoutingModule&#45;&gt;AppModule -->
<g id="edge10" class="edge">
<title>AppRoutingModule&#45;&gt;AppModule</title>
<path fill="none" stroke="black" d="M1876,-85.05C1876,-107.82 1876,-143.8 1876,-143.8 1876,-143.8 1062.72,-143.8 1062.72,-143.8"/>
<polygon fill="black" stroke="black" points="1062.72,-140.3 1052.72,-143.8 1062.72,-147.3 1062.72,-140.3"/>
</g>
<!-- CustomMaterialModule -->
<g id="node12" class="node">
<title>CustomMaterialModule</title>
<polygon fill="#8dd3c7" stroke="black" points="1793.03,-84.8 1790.03,-88.8 1769.03,-88.8 1766.03,-84.8 1642.97,-84.8 1642.97,-48.8 1793.03,-48.8 1793.03,-84.8"/>
<text text-anchor="middle" x="1718" y="-62.6" font-family="Times,serif" font-size="14.00">CustomMaterialModule</text>
</g>
<!-- CustomMaterialModule&#45;&gt;AppModule -->
<g id="edge11" class="edge">
<title>CustomMaterialModule&#45;&gt;AppModule</title>
<path fill="none" stroke="black" d="M1718,-85.08C1718,-106.12 1718,-137.8 1718,-137.8 1718,-137.8 1062.85,-137.8 1062.85,-137.8"/>
<polygon fill="black" stroke="black" points="1062.85,-134.3 1052.85,-137.8 1062.85,-141.3 1062.85,-134.3"/>
</g>
<!-- IconsProviderModule -->
<g id="node13" class="node">
<title>IconsProviderModule</title>
<polygon fill="#8dd3c7" stroke="black" points="1625.08,-84.8 1622.08,-88.8 1601.08,-88.8 1598.08,-84.8 1486.92,-84.8 1486.92,-48.8 1625.08,-48.8 1625.08,-84.8"/>
<text text-anchor="middle" x="1556" y="-62.6" font-family="Times,serif" font-size="14.00">IconsProviderModule</text>
</g>
<!-- IconsProviderModule&#45;&gt;AppModule -->
<g id="edge12" class="edge">
<title>IconsProviderModule&#45;&gt;AppModule</title>
<path fill="none" stroke="black" d="M1556,-84.91C1556,-104.14 1556,-131.8 1556,-131.8 1556,-131.8 1062.86,-131.8 1062.86,-131.8"/>
<polygon fill="black" stroke="black" points="1062.86,-128.3 1052.86,-131.8 1062.86,-135.3 1062.86,-128.3"/>
</g>
</g>
</svg>
